<svg xmlns="http://www.w3.org/2000/svg" xmlns:xlink="http://www.w3.org/1999/xlink" viewBox="0,0,256,256" width="480px" height="480px" fill-rule="nonzero"><g fill-opacity="0" fill="#dddddd" fill-rule="nonzero" stroke="none" stroke-width="1" stroke-linecap="butt" stroke-linejoin="miter" stroke-miterlimit="10" stroke-dasharray="" stroke-dashoffset="0" font-family="none" font-weight="none" font-size="none" text-anchor="none" style="mix-blend-mode: normal"><path d="M0,256v-256h256v256z" id="bgRectangle"></path></g><g fill="#efe6dd" fill-rule="nonzero" stroke="none" stroke-width="1" stroke-linecap="butt" stroke-linejoin="miter" stroke-miterlimit="10" stroke-dasharray="" stroke-dashoffset="0" font-family="none" font-weight="none" font-size="none" text-anchor="none" style="mix-blend-mode: normal"><g transform="scale(8.53333,8.53333)"><path d="M12.345,6.236c-0.218,-0.606 -0.438,-1.217 -0.442,-1.225c-0.105,-0.235 -0.348,-0.383 -0.604,-0.357c-0.162,0.013 -3.995,0.343 -6.451,2.318c-1.284,1.186 -3.848,8.12 -3.848,14.115c0,0.106 0.027,0.209 0.08,0.301c1.771,3.11 6.599,3.924 7.699,3.959c0.007,0.001 0.013,0.001 0.019,0.001c0.194,0 0.376,-0.093 0.492,-0.25l1.19,-1.612c-1.966,-0.299 -2.321,-0.689 -2.404,-0.75c-0.444,-0.327 -0.772,-0.785 -0.374,-1.363c0.306,-0.449 0.948,-0.597 1.44,-0.344c0.504,0.235 1.853,0.991 5.858,0.971c3.977,-0.012 5.723,-0.845 5.748,-0.863c0.668,-0.301 1.189,-0.177 1.514,0.269c0.387,0.607 0.111,1.018 -0.331,1.344c-0.083,0.061 -0.284,0.232 -2.396,0.732l1.175,1.615c0.115,0.158 0.298,0.25 0.492,0.25c0.007,0 0.013,0 0.019,-0.001c1.101,-0.035 5.929,-0.849 7.699,-3.959c0.053,-0.092 0.08,-0.195 0.08,-0.301c0,-5.994 -2.564,-12.928 -3.88,-14.14c-2.424,-1.948 -6.257,-2.278 -6.419,-2.292c-0.256,-0.022 -0.499,0.123 -0.604,0.357c-0.004,0.008 -0.218,0.629 -0.425,1.228c0,0 -1.631,-0.239 -2.672,-0.239c-1.041,0 -2.655,0.236 -2.655,0.236zM11,19c-1.105,0 -2,-1.333 -2,-2.979c0,-1.646 0.895,-2.979 2,-2.979c1.109,-0.165 1.976,1.333 2,2.979c0,1.646 -0.895,2.979 -2,2.979zM19,19c-1.105,0 -2,-1.342 -2,-2.997c0,-1.655 0.895,-2.997 2,-2.997c1.105,0 2,1.342 2,2.997c0,1.655 -0.895,2.997 -2,2.997z"></path></g></g></svg>